:SAMPLES-PER-SECOND 30
:FULLY-SPECIFIED
:DEGREES
382
root  -27.6062 37.677 65.7046 -177.569 -51.2774 179.547
RightUpLeg  -35.3103 -10.2888 9.07667
RightLeg  41.2321 3.40742 -13.0303
RightFoot  -12.4141 0.0842054 -6.76431
RightToes  -5.82073e-011 -3.18055e-015 -2.98177e-016
Spine  14.5023 0.342413 3.06869
Spine1  2.2428 2.13544 -7.11405
HEad  -3.91882 -20.6246 9.39121
LeftShoulder1  -3.88251e-019 9.70628e-020 -3.87848e-018
LeftArm  -3.29057 44.2292 -59.6152
LeftForeArm  -102.191 -79.1151 98.3695
LeftHand  -2.50601 -10.2256 19.2107
RightShoulder  7.00329 10.3822 33.1728
RightArm  55.7702 -45.9981 22.9159
RightForeArm  -63.7944 67.1983 -93.7706
RightHand  -3.62592 11.2125 -24.9415
LeftUpLeg  -22.1188 -3.52769 -2.01075
LeftLeg  41.1687 3.98298 17.5297
LeftFoot  -12.3563 0.0471586 -12.8637
LeftToes  1.2018e-011 -3.94675e-011 -1.33631e-011
383
root  -28.0409 38.0274 66.3278 -178.128 -44.7369 -178.768
RightUpLeg  -35.5878 -10.4734 10.5844
RightLeg  41.0415 3.45886 -12.878
RightFoot  -11.426 0.138555 -6.6569
RightToes  -5.82073e-011 -3.18055e-015 -2.98177e-016
Spine  13.9865 1.19777 4.60956
Spine1  1.00651 3.29204 -8.13495
HEad  -4.31121 -21.5744 11.5555
LeftShoulder1  -3.88251e-019 9.70628e-020 -3.87848e-018
LeftArm  -3.44874 44.045 -57.0249
LeftForeArm  -129.407 -76.7395 126.04
LeftHand  -2.72711 -10.985 19.8966
RightShoulder  6.83155 10.3148 32.4233
RightArm  61.4656 -44.9263 19.1169
RightForeArm  -81.8077 65.9954 -111.392
RightHand  -3.7828 12.2099 -24.5471
LeftUpLeg  -20.3298 -7.6081 -0.539477
LeftLeg  39.4081 2.28486 15.0853
LeftFoot  -13.1352 -0.0377007 -12.9531
LeftToes  1.2018e-011 -3.94675e-011 -1.33631e-011
384
root  -28.4525 38.1709 66.8204 179.879 -38.6552 -176.755
RightUpLeg  -33.7974 -11.1012 12.0677
RightLeg  41.1297 4.00791 -12.3859
RightFoot  -10.7846 0.18092 -7.04427
RightToes  -5.82073e-011 -3.18055e-015 -2.98177e-016
Spine  13.8868 1.77903 5.27217
Spine1  0.683502 3.99744 -8.15643
HEad  -4.4561 -21.7981 13.0948
LeftShoulder1  -3.88251e-019 9.70628e-020 -3.87848e-018
LeftArm  -4.13382 44.3716 -54.2319
LeftForeArm  -140.65 -73.7918 138.819
LeftHand  -2.66728 -10.7806 19.7279
RightShoulder  6.54913 10.163 31.2579
RightArm  64.7305 -42.1922 18.0353
RightForeArm  -88.6936 64.2762 -120.904
RightHand  -4.03921 13.1474 -24.8767
LeftUpLeg  -16.2282 -9.89825 0.93554
LeftLeg  36.2243 1.34263 12.794
LeftFoot  -16.1877 -0.350681 -11.4286
LeftToes  1.2018e-011 -3.94675e-011 -1.33631e-011
385
root  -28.7995 38.2274 67.196 178.794 -33.0509 -176.374
RightUpLeg  -31.4226 -11.3791 11.7818
RightLeg  40.887 2.76226 -13.4656
RightFoot  -11.2464 0.157325 -7.20291
RightToes  -5.82073e-011 -3.18055e-015 -2.98177e-016
Spine  13.7892 2.09187 2.88959
Spine1  0.302149 3.7581 -6.50462
HEad  -3.49941 -20.5744 14.1941
LeftShoulder1  -3.88251e-019 9.70628e-020 -3.87848e-018
LeftArm  -4.40426 45.9153 -50.3376
LeftForeArm  -147.653 -71.4375 145.275
LeftHand  -2.77641 -10.3401 21.0451
RightShoulder  6.2967 9.95571 30.3441
RightArm  65.8229 -37.9889 19.7223
RightForeArm  -92.1839 63.7016 -123.604
RightHand  -4.1529 13.0029 -25.7485
LeftUpLeg  -11.8658 -7.88095 0.350592
LeftLeg  32.3781 2.85956 12.2668
LeftFoot  -18.6803 -0.512594 -9.41322
LeftToes  1.2018e-011 -3.94675e-011 -1.33631e-011
386
root  -29.0192 38.304 67.5105 179.183 -28.5142 -177.779
RightUpLeg  -29.8912 -11.8777 9.78934
RightLeg  40.4908 0.330326 -15.5251
RightFoot  -11.6186 0.135522 -7.22492
RightToes  -5.82073e-011 -3.18055e-015 -2.98177e-016
Spine  12.7349 2.16736 -2.32806
Spine1  0.982629 2.72319 -3.16567
HEad  -3.32536 -18.326 15.5373
LeftShoulder1  -3.88251e-019 9.70628e-020 -3.87848e-018
LeftArm  -4.02241 47.7678 -46.2475
LeftForeArm  -148.414 -71.1331 145.924
LeftHand  -3.73227 -11.4095 26.0988
RightShoulder  6.23811 9.78964 30.3753
RightArm  64.4938 -34.1606 22.9247
RightForeArm  -88.5469 64.6951 -119.383
RightHand  -4.06659 12.1726 -26.3697
LeftUpLeg  -9.58271 -1.64496 -1.57652
LeftLeg  29.7921 3.61761 11.6723
LeftFoot  -19.2172 -0.460941 -7.59511
LeftToes  1.2018e-011 -3.94675e-011 -1.33631e-011
387
root  -29.1771 38.4533 67.7851 179.399 -25.1267 -179.002
RightUpLeg  -28.0136 -13.4504 7.90292
RightLeg  39.3297 -1.15384 -16.2296
RightFoot  -11.5336 0.143661 -7.45003
RightToes  -5.82073e-011 -3.18055e-015 -2.98177e-016
Spine  11.2338 1.81595 -5.75058
Spine1  3.10967 1.79058 -1.21587
HEad  -4.50989 -16.8077 16.9589
LeftShoulder1  -3.88251e-019 9.70628e-020 -3.87848e-018
LeftArm  -3.58327 48.6292 -44.176
LeftForeArm  -136.889 -74.8169 135.598
LeftHand  -4.96897 -12.7905 31.9538
RightShoulder  6.3593 9.77696 31.0606
RightArm  60.718 -33.5856 26.084
RightForeArm  -72.1183 66.3658 -107.307
RightHand  -3.75197 11.3049 -25.608
LeftUpLeg  -8.37604 4.36868 -2.83936
LeftLeg  28.3385 2.69435 10.5435
LeftFoot  -18.4082 -0.356153 -6.60162
LeftToes  1.2018e-011 -3.94675e-011 -1.33631e-011
388
root  -29.3926 38.6529 67.9802 178.722 -21.9227 -179.127
RightUpLeg  -24.7704 -14.7155 6.7694
RightLeg  37.182 -0.785076 -14.7985
RightFoot  -11.964 0.115521 -7.22358
RightToes  -5.82073e-011 -3.18055e-015 -2.98177e-016
Spine  10.3424 1.41184 -4.6915
Spine1  4.93161 1.93458 -3.19996
HEad  -5.40421 -17.0444 17.5352
LeftShoulder1  -3.88251e-019 9.70628e-020 -3.87848e-018
LeftArm  -4.27404 48.1903 -45.4134
LeftForeArm  -94.8021 -79.3826 93.0208
LeftHand  -4.75482 -11.6523 32.4027
RightShoulder  6.49698 9.86401 31.6178
RightArm  54.1587 -37.4149 28.5724
RightForeArm  -45.9094 66.8105 -89.331
RightHand  -3.27605 10.7309 -23.2396
LeftUpLeg  -6.30174 7.45914 -3.01056
LeftLeg  26.3782 2.65195 9.77292
LeftFoot  -17.4654 -0.294393 -6.47368
LeftToes  1.2018e-011 -3.94675e-011 -1.33631e-011
389
root  -29.6492 38.8588 68.0769 178.219 -18.0093 -178.853
RightUpLeg  -21.4872 -13.7621 5.98766
RightLeg  34.8543 0.426418 -12.7477
RightFoot  -12.8457 0.0592359 -6.21931
RightToes  -5.82073e-011 -3.18055e-015 -2.98177e-016
Spine  9.71425 1.48919 -2.17813
Spine1  5.36311 2.83983 -6.17864
HEad  -5.13235 -17.8312 16.5113
LeftShoulder1  -3.88251e-019 9.70628e-020 -3.87848e-018
LeftArm  -6.91446 47.5462 -49.2973
LeftForeArm  -43.4597 -73.4305 39.3629
LeftHand  -3.06165 -8.509 26.0345
RightShoulder  6.62322 9.95441 32.0986
RightArm  46.4565 -43.0266 29.7018
RightForeArm  -22.6395 65.2885 -72.2668
RightHand  -2.88226 10.3367 -21.0389
LeftUpLeg  -3.89178 9.51706 -3.0675
LeftLeg  23.5479 4.47205 9.62044
LeftFoot  -16.7959 -0.254214 -6.44822
LeftToes  1.2018e-011 -3.94675e-011 -1.33631e-011
390
root  -29.8388 39.0392 68.088 178.846 -13.8635 -179.082
RightUpLeg  -19.6841 -11.4568 5.19422
RightLeg  33.2853 1.18175 -11.537
RightFoot  -13.5217 0.0270544 -5.18713
RightToes  -5.82073e-011 -3.18055e-015 -2.98177e-016
Spine  8.48213 1.84255 -2.5191
Spine1  5.21927 3.11106 -5.98119
HEad  -4.75041 -16.9138 14.2418
LeftShoulder1  -3.88251e-019 9.70628e-020 -3.87848e-018
LeftArm  -10.5481 48.1866 -53.9873
LeftForeArm  -27.4694 -63.7722 22.5684
LeftHand  -2.05803 -6.85798 20.3895
RightShoulder  6.78519 10.0192 32.8184
RightArm  42.0153 -46.7492 28.3015
RightForeArm  -12.1096 63.0473 -60.4016
RightHand  -2.82861 9.69404 -21.4983
LeftUpLeg  -2.63052 11.9712 -3.75938
LeftLeg  20.9054 6.73567 9.47888
LeftFoot  -15.9183 -0.202283 -6.46635
LeftToes  1.2018e-011 -3.94675e-011 -1.33631e-011
391
root  -29.9631 39.1645 68.0377 -179.943 -10.2762 -179.621
RightUpLeg  -18.8634 -9.96553 4.43865
RightLeg  32.5117 1.36366 -11.1081
RightFoot  -14.1844 0.00465527 -4.61159
RightToes  -5.82073e-011 -3.18055e-015 -2.98177e-016
Spine  6.77123 1.67848 -5.0603
Spine1  5.42582 2.27024 -3.50436
HEad  -5.45397 -13.6974 12.0431
LeftShoulder1  -3.88251e-019 9.70628e-020 -3.87848e-018
LeftArm  -13.0009 50.4144 -58.1955
LeftForeArm  -21.7508 -58.077 17.5092
LeftHand  -2.35033 -7.98334 20.9875
RightShoulder  6.9127 10.0717 33.3763
RightArm  42.3284 -47.7726 25.1819
RightForeArm  -11.4346 60.7873 -52.0975
RightHand  -3.02897 9.0664 -23.9247
LeftUpLeg  -2.32548 13.197 -4.56835
LeftLeg  19.2027 9.2442 8.89275
LeftFoot  -14.9939 -0.156472 -6.99223
LeftToes  1.2018e-011 -3.94675e-011 -1.33631e-011
